<svg width="47" height="53" viewBox="0 0 47 53" fill="none" xmlns="http://www.w3.org/2000/svg">
<path d="M20.4649 9.50098C19.0154 9.50098 17.6203 9.93052 16.4306 10.7432C16.0789 10.9834 15.99 11.4611 16.232 11.8102C16.4741 12.1593 16.9554 12.2475 17.3071 12.0074C18.2379 11.3716 19.3298 11.0355 20.4649 11.0355C23.5408 11.0355 26.0432 13.5191 26.0432 16.5719C26.0432 19.6246 23.5408 22.1083 20.4649 22.1083C17.389 22.1083 14.8866 19.6246 14.8866 16.5719C14.8866 15.6713 15.0973 14.8128 15.5128 14.0204C15.7098 13.6444 15.5626 13.1811 15.1838 12.9856C14.8049 12.7902 14.3384 12.9361 14.1412 13.3121C13.6174 14.3113 13.3405 15.4385 13.3405 16.5719C13.3406 20.4708 16.5365 23.6428 20.4649 23.6428C24.3933 23.6428 27.5893 20.4708 27.5893 16.5719C27.5893 12.673 24.3933 9.50098 20.4649 9.50098Z" fill="#BEAD8E"/>
<path d="M46.8706 51.078L39.2408 32.8834C39.1209 32.5974 38.8394 32.411 38.5272 32.411H30.924C32.4028 30.4254 33.6338 28.4477 34.5951 26.5058C36.2988 23.0643 37.1625 19.7222 37.1625 16.572C37.1624 7.43412 29.672 0 20.4649 0C11.2579 0 3.7675 7.43412 3.7675 16.5719C3.7675 19.7221 4.63123 23.0643 6.33491 26.5057C7.29613 28.4476 8.52706 30.4254 10.006 32.4109H2.40279C2.09059 32.4109 1.80898 32.5974 1.68917 32.8833L-3.50997 45.2815C-3.67403 45.6727 -3.48753 46.1218 -3.09335 46.2845C-2.99617 46.3247 -2.89569 46.3437 -2.79665 46.3437C-2.49375 46.3437 -2.20625 46.1659 -2.08272 45.8711L-1.34087 44.102H3.92174L1.1946 50.6054H-4.0679L-3.27736 48.7201C-3.1133 48.3289 -3.2998 47.8798 -3.69398 47.7171C-4.08837 47.554 -4.54076 47.7394 -4.70472 48.1305L-5.94061 51.078C-6.03996 51.3147 -6.01349 51.5852 -5.87 51.7984C-5.72672 52.0118 -5.48543 52.14 -5.22699 52.14H46.1569C46.4152 52.14 46.6566 52.0118 46.8 51.7984C46.9434 51.5852 46.97 51.3147 46.8706 51.078ZM5.31363 16.5719C5.31363 8.28018 12.1105 1.53446 20.4649 1.53446C28.8194 1.53446 35.6163 8.28028 35.6163 16.5719C35.6163 20.0488 34.399 25.605 28.7679 32.6855C28.7622 32.6921 28.7572 32.6991 28.7518 32.7059C28.4642 33.0671 28.1654 33.4322 27.8544 33.8014C24.76 37.4738 21.6287 40.1554 20.4648 41.1082C19.3044 40.1587 16.1878 37.4905 13.0957 33.8251C12.7769 33.4472 12.4711 33.0736 12.1767 32.7039C12.172 32.698 12.1675 32.6919 12.1626 32.6861C6.53174 25.6061 5.31363 20.0502 5.31363 16.5719ZM2.91834 33.9455H8.18105L6.26151 38.5228H0.998905L2.91834 33.9455ZM7.43889 50.6055L12.2709 39.083L26.0218 50.6055H7.43889ZM28.4184 50.6055L12.4617 37.2345C12.2733 37.0765 12.0202 37.0174 11.781 37.075C11.5416 37.1325 11.3439 37.3001 11.2493 37.5258L5.76436 50.6054H2.86934L5.79455 43.6295C5.8939 43.3927 5.86743 43.1223 5.72394 42.909C5.58066 42.6956 5.33927 42.5674 5.08082 42.5674H-0.697129L0.355474 40.0572H6.77716C7.08937 40.0572 7.37097 39.8707 7.49079 39.5847L9.85569 33.9454H11.1973C11.4302 34.2336 11.667 34.5219 11.91 34.8101C15.8989 39.5383 19.8266 42.5739 19.9919 42.7009C20.1312 42.808 20.2981 42.8613 20.4649 42.8613C20.6318 42.8613 20.7988 42.8079 20.938 42.7009C21.0289 42.6312 22.2568 41.6817 24.0056 40.0573H32.7598C33.1868 40.0573 33.5329 39.7138 33.5329 39.29C33.5329 38.8663 33.1868 38.5228 32.7598 38.5228H25.5988C26.6707 37.4532 27.8422 36.2061 29.02 34.8102C29.263 34.522 29.4998 34.2338 29.7327 33.9455H38.0115L39.931 38.5228H35.852C35.425 38.5228 35.0789 38.8663 35.0789 39.29C35.0789 39.7138 35.4249 40.0573 35.852 40.0573H40.5744L41.627 42.5675H25.6994C25.3768 42.5675 25.0882 42.7663 24.9752 43.0663C24.8624 43.3663 24.949 43.7043 25.1927 43.9142L32.9598 50.6055H28.4184ZM35.3185 50.6055L27.7694 44.1021H42.2707L44.9979 50.6055H35.3185Z" fill="#BEAD8E"/>
</svg>
