<svg width="53" height="41" viewBox="0 0 53 41" fill="none" xmlns="http://www.w3.org/2000/svg">
<path d="M7.00501 24.1533C6.86028 24.0095 6.66076 23.9268 6.4571 23.9268C6.25241 23.9268 6.05289 24.0095 5.90816 24.1533C5.76447 24.298 5.68176 24.4975 5.68176 24.7021C5.68176 24.9058 5.76447 25.1063 5.90816 25.25C6.05289 25.3947 6.25241 25.4774 6.4571 25.4774C6.66076 25.4774 6.86028 25.3947 7.00501 25.25C7.14974 25.1063 7.23245 24.9058 7.23245 24.7021C7.23245 24.4974 7.14974 24.2979 7.00501 24.1533Z" fill="#BEAD8E"/>
<path d="M51.6378 21.9507H49.5399V20.4639C49.5399 19.7513 48.9603 19.1717 48.2477 19.1717H47.6871V15.2339H50.7115C51.092 15.2339 51.4353 15.0686 51.6536 14.7803C51.8717 14.4921 51.9377 14.1168 51.8343 13.7506L50.1267 7.69806C49.9559 7.09247 49.3525 6.63574 48.7232 6.63574H45.1003C44.471 6.63574 43.8677 7.09237 43.6968 7.69806L41.9893 13.7507C41.886 14.1169 41.9519 14.4922 42.17 14.7805C42.3881 15.0687 42.7316 15.234 43.1121 15.234H46.1364V19.1718H45.5759C44.8633 19.1718 44.2837 19.7514 44.2837 20.464V21.9508H42.4865V19.9084C42.4865 19.1958 41.9068 18.6161 41.1942 18.6161H20.2623C19.8341 18.6161 19.4869 18.9633 19.4869 19.3915C19.4869 19.8197 19.8341 20.1668 20.2623 20.1668H40.9359V25.903H39.8499V24.7708C39.8499 23.4882 38.8065 22.4448 37.5239 22.4448H29.4841C28.2015 22.4448 27.1581 23.4882 27.1581 24.7708V25.903H26.094V24.7708C26.094 23.4882 25.0506 22.4448 23.7679 22.4448H15.7282C14.4455 22.4448 13.4021 23.4882 13.4021 24.7708V25.903H11.9941V20.1668H16.7473C17.1755 20.1668 17.5226 19.8197 17.5226 19.3915C17.5226 18.9633 17.1755 18.6161 16.7473 18.6161H11.7357C11.0231 18.6161 10.4434 19.1958 10.4434 19.9084V21.9508H8.6462V20.4641C8.6462 19.7515 8.06655 19.1719 7.35396 19.1719H6.79354V15.2339H9.81779C10.1983 15.2339 10.5417 15.0686 10.7599 14.7803C10.978 14.4921 11.044 14.1168 10.9406 13.7506L9.23308 7.69806C9.0623 7.09247 8.45888 6.63574 7.82961 6.63574H4.20669C3.57743 6.63574 2.97411 7.09237 2.80322 7.69806L1.09582 13.7506C0.992541 14.1168 1.05839 14.4921 1.27652 14.7803C1.49465 15.0686 1.83808 15.2339 2.21861 15.2339H5.24286V19.1718H4.68255C3.96996 19.1718 3.39031 19.7514 3.39031 20.464V21.9507H1.29224C0.579646 21.9507 0 22.5304 0 23.2429V26.8018V32.5837C0 33.2963 0.579646 33.876 1.29224 33.876H6.54595V38.8827C6.54595 39.5953 7.1256 40.175 7.83819 40.175H11.3898C12.1024 40.175 12.682 39.5953 12.682 38.8827V36.3874H31.9441C32.3723 36.3874 32.7194 36.0402 32.7194 35.612C32.7194 35.1838 32.3723 34.8367 31.9441 34.8367H12.4236C11.711 34.8367 11.1313 35.4163 11.1313 36.1289V38.6243H8.09664V31.7765H44.8335V38.6243H41.7988V36.1289C41.7988 35.4163 41.2191 34.8367 40.5065 34.8367H35.6657C35.2375 34.8367 34.8904 35.1838 34.8904 35.612C34.8904 36.0402 35.2375 36.3874 35.6657 36.3874H40.2481V38.8827C40.2481 39.5953 40.8277 40.175 41.5403 40.175H45.0919C45.8044 40.175 46.3842 39.5953 46.3842 38.8827V33.876H51.6378C52.3504 33.876 52.93 33.2963 52.93 32.5837V23.2429C52.93 22.5305 52.3504 21.9507 51.6378 21.9507ZM43.6196 13.6832L45.1703 8.18632H48.6532L50.204 13.6832H43.6196ZM45.8345 20.7225H47.9892V21.889H45.8345V20.7225ZM28.7088 24.7708C28.7088 24.3432 29.0567 23.9954 29.4842 23.9954H37.524C37.9515 23.9954 38.2993 24.3432 38.2993 24.7708V25.903H28.7088V24.7708ZM15.7282 23.9954H23.7679C24.1954 23.9954 24.5433 24.3432 24.5433 24.7708V25.903H14.9528V24.7708C14.9528 24.3432 15.3007 23.9954 15.7282 23.9954ZM2.726 13.6832L4.27668 8.18643H7.75952L9.3103 13.6832H2.726ZM4.94089 20.7225H7.09551V21.889H4.94089V20.7225ZM7.46292 28.2289V30.2817C6.9329 30.4429 6.54585 30.9359 6.54585 31.5179V32.3253H1.55068V27.5771H7.55658C7.496 27.7841 7.46292 28.0026 7.46292 28.2289ZM1.55068 26.0264V23.5014H10.4434V25.9029H9.78895C9.52792 25.9029 9.27712 25.9467 9.04266 26.0264H1.55068ZM43.9164 30.2258H9.01361V28.229C9.01361 27.8015 9.36148 27.4537 9.78895 27.4537H43.1411C43.5685 27.4537 43.9164 27.8015 43.9164 28.229V30.2258ZM51.3793 32.3253H46.3842V31.5179C46.3842 30.9359 45.9972 30.4429 45.4671 30.2817V28.2289C45.4671 28.0026 45.434 27.7841 45.3734 27.5771H51.3793V32.3253ZM51.3793 26.0264H43.8873C43.6529 25.9467 43.4021 25.9029 43.1411 25.9029H42.4867V23.5014H51.3793V26.0264Z" fill="#BEAD8E"/>
<path d="M47.0219 24.1542C46.8772 24.0095 46.6777 23.9268 46.473 23.9268C46.2693 23.9268 46.0698 24.0095 45.9251 24.1542C45.7803 24.2979 45.6976 24.4974 45.6976 24.7021C45.6976 24.9058 45.7803 25.1053 45.9251 25.25C46.0688 25.3947 46.2693 25.4774 46.473 25.4774C46.6777 25.4774 46.8772 25.3947 47.0219 25.25C47.1656 25.1053 47.2483 24.9058 47.2483 24.7021C47.2483 24.4984 47.1656 24.2979 47.0219 24.1542Z" fill="#BEAD8E"/>
<path d="M37.9513 4.11541C38.3795 4.11541 38.7266 3.76826 38.7266 3.34007V1.29224C38.7266 0.579645 38.147 0 37.4344 0H15.4957C14.7831 0 14.2035 0.579645 14.2035 1.29224V12.7888C14.2035 13.5014 14.7831 14.081 15.4957 14.081H37.4344C38.147 14.081 38.7266 13.5014 38.7266 12.7888V6.85495C38.7266 6.42675 38.3795 6.07961 37.9513 6.07961C37.5231 6.07961 37.1759 6.42675 37.1759 6.85495V9.04927L33.5104 2.70057C33.3719 2.46073 33.1159 2.3129 32.839 2.3129C32.5619 2.3129 32.3061 2.46073 32.1675 2.70057L28.8683 8.41514L26.5673 4.42968C26.5662 4.42772 26.5647 4.42606 26.5636 4.4241C26.4979 4.31235 26.4038 4.21527 26.2835 4.14591C25.9126 3.9317 25.4385 4.05886 25.2244 4.42968L20.5474 12.5304H15.7542V1.55068H37.1759V3.34007C37.1759 3.76826 37.5231 4.11541 37.9513 4.11541ZM32.839 4.63892L37.1759 12.1506V12.5304H28.283L32.839 4.63892ZM25.8959 6.36803L27.973 9.96583L26.4924 12.5304H22.338L25.8959 6.36803Z" fill="#BEAD8E"/>
<path d="M19.9191 2.43652C18.4701 2.43642 17.2911 3.61535 17.2911 5.06452C17.2911 6.51358 18.4701 7.69241 19.9191 7.69241C21.3682 7.69241 22.547 6.51358 22.547 5.06452C22.547 3.61535 21.3682 2.43652 19.9191 2.43652ZM19.9191 6.14173C19.3251 6.14173 18.8418 5.65843 18.8418 5.06452C18.8418 4.4704 19.3251 3.98721 19.9191 3.98721C20.513 3.9871 20.9963 4.4704 20.9963 5.06452C20.9963 5.65853 20.513 6.14173 19.9191 6.14173Z" fill="#BEAD8E"/>
</svg>
